<svg width="1440" height="1056" viewBox="0 0 1440 1056" fill="none" xmlns="http://www.w3.org/2000/svg">
<path d="M1131.63 83.2145C1138.11 94.2637 1147.23 117.121 1146.28 137.383C1144.08 183.96 1137.11 186.711 1137.11 186.711" stroke="white" stroke-width="0.926809"/>
<path d="M1214.76 69.7285C1217.04 68.1087 1217.58 67.7348 1217.58 67.7348L1221 61.8862L1220.31 52.6724M1180.58 192.094C1182.75 186.966 1187.12 168.952 1186.47 139.867C1185.82 110.278 1192.96 92.4557 1199.69 83.1149L1180.58 192.094Z" stroke="white" stroke-width="0.926809"/>
<path d="M1161.83 141.475C1160.41 140.832 1157.66 139.589 1156.17 138.004C1151.77 133.346 1151.3 121.081 1149.26 108.35C1147.22 95.6185 1139.68 81.3348 1139.05 81.4901C1139.05 81.4901 1149.26 76.6771 1150.2 75.9008C1151.14 75.1245 1155.7 71.5536 1157.11 71.2431C1158.52 70.9325 1158.84 73.8824 1158.84 73.8824C1158.84 73.8824 1159.62 77.4533 1165.75 77.2981" stroke="white" stroke-width="0.926809"/>
<path d="M1168.98 141.771C1170.4 141.128 1173.84 139.578 1175.32 138.004C1179.72 133.346 1180.19 121.081 1182.23 108.35C1184.28 95.6184 1191.81 81.3348 1192.44 81.49C1192.44 81.49 1182.23 76.677 1181.29 75.9008C1180.35 75.1245 1175.8 71.5536 1174.38 71.2431C1172.97 70.9325 1172.66 73.8824 1172.66 73.8824C1172.66 73.8824 1171.87 77.4533 1165.75 77.2981" stroke="white" stroke-width="0.926809"/>
<path d="M1150.64 75.3797C1150.59 80.0258 1149.44 98.7897 1155.65 108.643" stroke="white" stroke-width="0.926809"/>
<path d="M1158.84 73.8825C1158.84 73.8825 1152.66 84.7104 1155.65 108.643" stroke="white" stroke-width="0.926809"/>
<path d="M1116.76 69.3801L1111.8 62.4507L1112.45 52.2578" stroke="white" stroke-width="0.926809"/>
<path d="M1180.86 75.3797C1180.9 80.0258 1182.05 98.7897 1175.84 108.643" stroke="white" stroke-width="0.926809"/>
<path d="M1172.66 73.8825C1172.66 73.8825 1178.84 84.7104 1175.84 108.643" stroke="white" stroke-width="0.926809"/>
<path d="M1116.76 69.3802C1116.76 69.3802 1074.89 83.4087 1085.32 131.933" stroke="white" stroke-width="0.926809"/>
<path d="M1217.25 68.4485C1217.25 68.4485 1258.96 80.9245 1248.52 129.449" stroke="white" stroke-width="0.926809"/>
<path d="M1116.76 69.3802C1116.76 69.3802 1120.57 98.5433 1156.76 71.2072" stroke="white" stroke-width="0.926809"/>
<path d="M1214.76 69.7285C1214.76 69.7285 1210.4 98.5035 1174.2 71.1673" stroke="white" stroke-width="0.926809"/>
<path d="M1162.47 146.839C1159.09 146.272 1153.3 145.032 1150.76 142.34C1148.41 139.851 1147.18 135.189 1146.23 129.444" stroke="white" stroke-width="0.926809"/>
<path d="M1168.96 146.902C1172.18 146.356 1177.82 145.115 1180.16 142.64C1182.51 140.151 1185.93 132.073 1186.88 126.328" stroke="white" stroke-width="0.926809"/>
<path d="M1161.09 135.038C1161.09 135.038 1165.33 164.381 1164.39 167.952C1164.39 167.952 1165.8 176.647 1159.99 186.894C1154.18 197.141 1143.19 201.488 1143.19 201.488C1143.19 201.488 1150.41 202.575 1159.36 193.57C1168.31 184.565 1165.8 182.081 1165.8 182.081C1165.8 182.081 1170.67 198.693 1187.94 200.712" stroke="white" stroke-width="0.926809"/>
<path d="M1170.04 134.882C1170.04 134.882 1165.17 171.834 1170.36 182.236C1175.54 192.638 1176.32 196.83 1187.94 200.711" stroke="white" stroke-width="0.926809"/>
<path d="M1161.09 135.037C1161.09 135.037 1165.33 99.4836 1170.04 134.882" stroke="white" stroke-width="0.926809"/>
<path d="M1061.17 554.06C1061.17 554.06 1040.13 605.295 1118.01 592.253C1195.89 579.211 1226.04 615.852 1230.44 631.067C1234.83 646.282 1241.43 689.444 1224.78 707.764C1208.14 726.085 1177.99 740.99 1178.31 761.794C1178.62 782.599 1194.64 801.851 1194.64 801.851C1194.64 801.851 1211.91 826.381 1202.8 858.675C1193.69 890.968 1171.71 896.868 1171.71 896.868C1171.71 896.868 1148.47 902.457 1138.42 888.795C1128.37 875.132 1144.07 876.685 1147.84 879.79C1151.61 882.895 1165.74 884.448 1171.4 875.753C1177.05 867.059 1187.41 850.601 1167 817.997" stroke="white" stroke-width="0.926809"/>
<path d="M1137.11 186.711C1135.19 203.791 1124.3 224.149 1122.72 226.156C1120.52 228.951 1089.75 249.445 1066.19 250.997C1042.64 252.55 1020.66 266.523 1012.8 275.838C1004.95 285.154 977.317 309.684 987.052 349.741C996.788 389.797 1009.04 414.328 1047.03 423.022C1085.03 431.717 1145.65 397.25 1145.65 397.25C1145.65 397.25 1217.88 353.467 1239.54 356.262C1261.21 359.056 1310.52 372.098 1298.59 436.996C1286.65 501.893 1185.53 493.199 1185.53 493.199C1185.53 493.199 1130.26 477.362 1117.7 473.947C1105.13 470.531 1081.58 472.084 1067.76 477.052C1053.94 482.02 1034.47 497.546 1034.47 497.546C1034.47 497.546 1011.86 521.145 1012.49 546.918C1013.12 572.691 1012.18 596.29 1031.33 618.026C1050.49 639.762 1079.07 642.246 1079.07 642.246C1079.07 642.246 1121.78 642.867 1128.69 641.314C1135.6 639.762 1183.33 636.036 1180.5 664.913C1180.5 664.913 1183.33 682.613 1160.72 697.207C1138.11 711.801 1130.57 734.469 1130.57 734.469C1130.57 734.469 1124.92 751.237 1130.88 767.383C1136.85 783.53 1147.22 797.193 1147.22 797.193L1167 817.997M1159.42 242.946C1159.42 242.946 1172.23 223.452 1174.85 207.214C1175.42 203.66 1177.19 200.324 1178.34 198.147L1159.42 242.946ZM1179.31 196.126C1179.71 195.161 1180.37 193.238 1180.58 192.094L1179.31 196.126Z" stroke="white" stroke-width="0.926809"/>
<path d="M1058.34 251.618C1058.34 251.618 980.457 291.675 1009.35 338.873C1038.24 386.071 1084.72 371.167 1084.72 371.167L1170.77 327.384C1170.77 327.384 1230.12 293.227 1277.23 313.411C1324.34 333.594 1323.71 379.861 1323.71 379.861C1323.71 379.861 1325.91 427.059 1308.32 448.485C1290.73 469.91 1279.43 481.71 1248.97 486.678" stroke="white" stroke-width="0.926809"/>
<path d="M1034.47 497.546C1034.47 497.546 1013.75 546.388 1027.96 572.736C1042.17 599.084 1067.49 603.036 1067.49 603.036L1080.37 603.914C1080.37 603.914 1150.99 595.132 1156.32 602.158C1156.32 602.158 1197.18 615.771 1191.85 651.78C1186.52 687.789 1170.08 689.985 1170.08 689.985" stroke="white" stroke-width="0.926809"/>
<path d="M985.105 334.066C985.105 334.066 991.323 312.988 1003.09 314.086" stroke="white" stroke-width="0.926809"/>
<path d="M992.21 367.441C992.432 366.123 997.984 346.362 1012.42 343.508" stroke="white" stroke-width="0.926809"/>
<path d="M1032.18 363.488C1032.18 363.488 1007.53 379.956 1020.86 412.233" stroke="white" stroke-width="0.926809"/>
<path d="M1060.61 373.149C1060.83 371.393 1031.07 401.474 1063.72 424.748" stroke="white" stroke-width="0.926809"/>
<path d="M1084.72 371.167C1084.72 371.167 1071.04 406.524 1095.47 418.38" stroke="white" stroke-width="0.926809"/>
<path d="M1117.01 354.925C1117.01 354.925 1098.36 392.91 1130.78 404.547" stroke="white" stroke-width="0.926809"/>
<path d="M1147.43 339.116C1147.43 339.116 1135 371.832 1164.75 386.323" stroke="white" stroke-width="0.926809"/>
<path d="M1188.96 318.916C1188.96 318.916 1170.08 352.73 1195.18 370.295" stroke="white" stroke-width="0.926809"/>
<path d="M1231.37 307.499C1231.37 307.499 1207.61 336.262 1226.49 357.999" stroke="white" stroke-width="0.926809"/>
<path d="M1278.67 313.647C1278.67 313.647 1237.59 313.866 1253.8 359.097" stroke="white" stroke-width="0.926809"/>
<path d="M1304.21 332.53C1304.21 332.53 1274.45 328.797 1278.45 370.515" stroke="white" stroke-width="0.926809"/>
<path d="M1321.31 363.927C1321.31 363.927 1304.21 349.875 1297.1 395.326" stroke="white" stroke-width="0.926809"/>
<path d="M1300.66 413.769C1300.66 413.769 1316.87 381.932 1323.97 396.643" stroke="white" stroke-width="0.926809"/>
<path d="M1024.11 560.891C1024.11 560.891 1015 568.033 1014.06 578.28" stroke="white" stroke-width="0.926809"/>
<path d="M1035.1 583.248C1035.1 583.248 1022.23 593.34 1027.25 613.058" stroke="white" stroke-width="0.926809"/>
<path d="M1055.83 599.084C1055.83 599.084 1042.17 610.884 1052.84 634.173" stroke="white" stroke-width="0.926809"/>
<path d="M1080.37 603.914C1076.68 612.879 1072.69 632.225 1085.03 642.712" stroke="white" stroke-width="0.926809"/>
<path d="M1177.05 614.455C1177.05 614.455 1161.5 622.839 1168.57 645.196" stroke="white" stroke-width="0.926809"/>
<path d="M1145.17 599.55C1144.86 600.327 1126.96 613.368 1149.57 640.849" stroke="white" stroke-width="0.926809"/>
<path d="M1114.08 600.792C1114.08 600.792 1093.36 623.77 1124.45 641.935" stroke="white" stroke-width="0.926809"/>
<path d="M1159.42 242.946C1159.42 242.946 1142.1 276.76 1118.12 285.981C1094.14 295.203 1055.94 303.108 1055.94 303.108C1055.94 303.108 1018.77 314.032 1040.91 351.139C1063.05 388.245 1135.28 339.96 1135.28 339.96L1179.41 316.721C1179.41 316.721 1248.25 284.664 1295.33 308.597C1342.41 332.53 1350.84 374.467 1350.84 374.467C1350.84 374.467 1364.54 436.996 1343.81 476.742C1323.08 516.488 1293.25 531.082 1293.25 531.082C1293.25 531.082 1267.5 545.676 1222.59 553.439C1177.68 561.202 1112.98 535.74 1112.98 535.74C1112.98 535.74 1081.89 523.63 1061.17 554.06" stroke="white" stroke-width="0.926809"/>
<path d="M1180.58 192.096C1183.56 188.37 1247.32 152.971 1253.13 115.709C1258.93 78.4474 1234.44 65.0953 1232.24 63.0769C1230.04 61.0586 1220.31 52.6747 1220.31 52.6747C1220.31 52.6747 1214.97 34.6648 1200.84 35.4411C1186.7 36.2174 1190.25 44.3707 1176.75 48.4074" stroke="white" stroke-width="0.926809"/>
<path d="M1137.11 186.711C1134.12 182.985 1085.45 152.554 1079.64 115.292C1073.83 78.0306 1098.32 64.6785 1100.52 62.6602C1102.72 60.6418 1112.45 52.2579 1112.45 52.2579C1112.45 52.2579 1117.79 34.2481 1131.92 35.0244C1146.06 35.8007 1144.17 45.2714 1157.68 49.3081C1171.18 53.3448 1184.11 44.9453 1184.11 44.9453" stroke="white" stroke-width="0.926809"/>
<path d="M1184.52 65.2065C1186.57 61.3565 1193.89 48.0828 1202.07 45.5488C1210.24 43.0147 1209.15 53.2716 1209.15 53.2716C1209.15 53.2716 1209.76 65.942 1197.8 69.3207C1185.84 72.6995 1184.52 65.2065 1184.52 65.2065V65.2065Z" stroke="white" stroke-width="0.926809"/>
<path d="M1203.01 49.2334C1203.01 49.2334 1210.69 56.4861 1197.23 67.749C1196.97 67.8344 1189.89 66.8105 1190.5 59.4725C1191.1 52.1345 1203.01 49.2334 1203.01 49.2334Z" stroke="white" stroke-width="0.926809"/>
<path d="M1198.45 61.6819L1197.23 66.5445C1197.23 66.5445 1195.76 67.9656 1195.16 65.0444C1194.55 62.1231 1193.09 56.3596 1193.78 54.9384C1194.47 53.5172 1198.18 51.6224 1198.18 51.6224C1198.18 51.6224 1199.01 58.3883 1198.66 58.4673C1198.32 58.5462 1194.81 53.0385 1194.69 53.7625" stroke="white" stroke-width="0.926809"/>
<path d="M1156.76 71.2089C1156.76 71.2089 1167.54 66.9532 1174.2 71.1695" stroke="white" stroke-width="0.926809"/>
<path d="M1147.15 64.92C1145.1 61.0701 1137.78 47.7965 1129.6 45.2625C1121.42 42.7285 1122.52 52.9853 1122.52 52.9853C1122.52 52.9853 1121.91 65.6555 1133.87 69.0342C1145.83 72.4129 1147.15 64.92 1147.15 64.92V64.92Z" stroke="white" stroke-width="0.926809"/>
<path d="M1128.66 48.9469C1128.66 48.9469 1120.98 56.1995 1134.44 67.4624C1134.7 67.5477 1141.78 66.5238 1141.17 59.1859C1140.57 51.8479 1128.66 48.9469 1128.66 48.9469Z" stroke="white" stroke-width="0.926809"/>
<path d="M1133.22 61.3953L1134.44 66.2579C1134.44 66.2579 1135.91 67.6791 1136.51 64.7578C1137.12 61.8366 1138.58 56.073 1137.89 54.6518C1137.2 53.2307 1133.49 51.3358 1133.49 51.3358C1133.49 51.3358 1132.66 58.1018 1133.01 58.1807C1133.35 58.2596 1136.86 52.7519 1136.98 53.4759" stroke="white" stroke-width="0.926809"/>
<path d="M1192.03 99.4238C1192.03 99.4238 1220.92 92.7477 1227.2 73.8063" stroke="white" stroke-width="0.926809"/>
<path d="M1189.2 110.447C1189.2 110.447 1236.62 101.753 1239.76 84.3639" stroke="white" stroke-width="0.926809"/>
<path d="M1187.94 118.52C1187.94 118.52 1243.53 115.105 1246.98 96.1635" stroke="white" stroke-width="0.926809"/>
<path d="M1186.88 126.328C1186.88 126.328 1246.36 128.767 1250.12 113.863" stroke="white" stroke-width="0.926809"/>
<path d="M1186.06 136.22C1186.06 136.22 1241.05 141.128 1244.79 135.288" stroke="white" stroke-width="0.926809"/>
<path d="M1186.37 144.293C1186.37 144.293 1225 154.54 1235.99 148.019" stroke="white" stroke-width="0.926809"/>
<path d="M1186.69 156.093C1186.69 156.093 1210.56 165.098 1222.17 161.371" stroke="white" stroke-width="0.926809"/>
<path d="M1185.74 166.34C1185.74 166.34 1197.68 176.897 1208.04 172.861" stroke="white" stroke-width="0.926809"/>
<path d="M1184.49 177.518C1184.49 177.518 1186.06 188.386 1197.05 180.623" stroke="white" stroke-width="0.926809"/>
<path d="M1138.87 99.3744C1138.87 99.3744 1109.94 95.4885 1103.66 76.5471" stroke="white" stroke-width="0.926809"/>
<path d="M1142.16 110.86C1142.16 110.86 1096.18 104.361 1093.04 86.9721" stroke="white" stroke-width="0.926809"/>
<path d="M1145.21 123.547C1145.21 123.547 1089.62 120.131 1086.16 101.19" stroke="white" stroke-width="0.926809"/>
<path d="M1146.57 133.094C1146.57 133.094 1126.96 132.588 1110.38 129.063C1096.55 126.125 1085.46 120.378 1083.76 117.723" stroke="white" stroke-width="0.926809"/>
<path d="M1145.47 140.713C1145.47 140.713 1128.59 141.633 1112.62 139.935C1101.27 138.728 1089.89 134.643 1085.32 131.933" stroke="white" stroke-width="0.926809"/>
<path d="M1145.39 150.969C1145.39 150.969 1099.54 155.627 1092.79 145.225" stroke="white" stroke-width="0.926809"/>
<path d="M1144.45 160.129C1144.45 160.129 1124.82 168.048 1104.72 159.043" stroke="white" stroke-width="0.926809"/>
<path d="M1142.88 171.308C1142.88 171.308 1136.13 178.294 1117.6 171.153" stroke="white" stroke-width="0.926809"/>
<rect x="23" y="79" width="763" height="684" rx="50" fill="#E1FF00" fill-opacity="0.9"/>
<rect y="79" width="763" height="684" rx="50" fill="#FCFEF1"/>
<rect y="79" width="463" height="684" fill="#FCFEF1"/>
</svg>
