<svg width="436" height="403" viewBox="0 0 436 403" fill="none" xmlns="http://www.w3.org/2000/svg">
<path d="M331.084 23.3874C334.091 28.5179 338.329 39.1313 337.885 48.5394C336.864 70.1666 333.627 71.4438 333.627 71.4438" stroke="#FCFEF1" stroke-width="0.926809"/>
<path d="M369.684 17.1255C370.745 16.3734 370.995 16.1998 370.995 16.1998L372.581 13.4841L372.26 9.20584M353.814 73.9433C354.822 71.5622 356.85 63.1981 356.55 49.6929C356.245 35.9538 359.561 27.6784 362.689 23.3412L353.814 73.9433Z" stroke="#FCFEF1" stroke-width="0.926809"/>
<path d="M345.108 50.4394C344.449 50.1411 343.173 49.5641 342.478 48.8278C340.437 46.6651 340.218 40.9699 339.27 35.0585C338.323 29.147 334.823 22.5147 334.531 22.5868C334.531 22.5868 339.27 20.3519 339.708 19.9915C340.145 19.631 342.26 17.973 342.916 17.8288C343.572 17.6846 343.718 19.0543 343.718 19.0543C343.718 19.0543 344.082 20.7124 346.926 20.6403" stroke="#FCFEF1" stroke-width="0.926809"/>
<path d="M348.43 50.5772C349.085 50.2787 350.683 49.5589 351.374 48.8278C353.415 46.665 353.634 40.9699 354.582 35.0584C355.529 29.147 359.029 22.5147 359.321 22.5868C359.321 22.5868 354.582 20.3519 354.144 19.9915C353.707 19.631 351.592 17.973 350.936 17.8288C350.28 17.6846 350.134 19.0543 350.134 19.0543C350.134 19.0543 349.77 20.7124 346.926 20.6403" stroke="#FCFEF1" stroke-width="0.926809"/>
<path d="M339.91 19.7495C339.891 21.9069 339.357 30.6195 342.239 35.1948" stroke="#FCFEF1" stroke-width="0.926809"/>
<path d="M343.718 19.0543C343.718 19.0543 340.847 24.082 342.239 35.1948" stroke="#FCFEF1" stroke-width="0.926809"/>
<path d="M324.178 16.9637L321.876 13.7461L322.181 9.01328" stroke="#FCFEF1" stroke-width="0.926809"/>
<path d="M353.942 19.7495C353.961 21.9069 354.495 30.6195 351.613 35.1948" stroke="#FCFEF1" stroke-width="0.926809"/>
<path d="M350.134 19.0543C350.134 19.0543 353.005 24.082 351.613 35.1948" stroke="#FCFEF1" stroke-width="0.926809"/>
<path d="M324.178 16.9637C324.178 16.9637 304.738 23.4776 309.584 46.0088" stroke="#FCFEF1" stroke-width="0.926809"/>
<path d="M370.841 16.5311C370.841 16.5311 390.209 22.3241 385.362 44.8554" stroke="#FCFEF1" stroke-width="0.926809"/>
<path d="M324.178 16.9637C324.178 16.9637 325.948 30.5051 342.755 17.8121" stroke="#FCFEF1" stroke-width="0.926809"/>
<path d="M369.684 17.1255C369.684 17.1255 367.659 30.4866 350.852 17.7936" stroke="#FCFEF1" stroke-width="0.926809"/>
<path d="M345.402 52.9304C343.835 52.6671 341.147 52.0914 339.967 50.8414C338.876 49.6855 338.305 47.5207 337.866 44.8531" stroke="#FCFEF1" stroke-width="0.926809"/>
<path d="M348.418 52.9596C349.915 52.7059 352.532 52.1299 353.617 50.9807C354.708 49.8249 356.299 46.074 356.738 43.4064" stroke="#FCFEF1" stroke-width="0.926809"/>
<path d="M344.765 47.4504C344.765 47.4504 346.733 61.0756 346.296 62.7337C346.296 62.7337 346.952 66.7708 344.254 71.5288C341.557 76.2868 336.453 78.3054 336.453 78.3054C336.453 78.3054 339.807 78.81 343.963 74.6287C348.119 70.4474 346.952 69.294 346.952 69.294C346.952 69.294 349.212 77.0077 357.232 77.9449" stroke="#FCFEF1" stroke-width="0.926809"/>
<path d="M348.92 47.3784C348.92 47.3784 346.66 64.536 349.066 69.366C351.472 74.1961 351.837 76.1425 357.232 77.9448" stroke="#FCFEF1" stroke-width="0.926809"/>
<path d="M344.764 47.4504C344.764 47.4504 346.733 30.9417 348.92 47.3783" stroke="#FCFEF1" stroke-width="0.926809"/>
<path d="M298.366 242.015C298.366 242.015 288.596 265.805 324.76 259.749C360.923 253.694 374.922 270.707 376.964 277.772C379.005 284.837 382.067 304.878 374.339 313.385C366.61 321.892 352.612 328.812 352.757 338.472C352.903 348.133 360.34 357.072 360.34 357.072C360.34 357.072 368.36 368.462 364.131 383.457C359.903 398.452 349.695 401.191 349.695 401.191C349.695 401.191 338.904 403.787 334.238 397.443C329.572 391.099 336.863 391.82 338.613 393.261C340.363 394.703 346.925 395.424 349.549 391.387C352.174 387.35 356.986 379.708 347.508 364.569" stroke="#FCFEF1" stroke-width="0.926809"/>
<path d="M333.628 71.4438C332.736 79.3749 327.681 88.8274 326.947 89.7595C325.927 91.0571 311.636 100.573 300.7 101.294C289.763 102.015 279.556 108.503 275.91 112.828C272.265 117.154 259.432 128.544 263.953 147.144C268.473 165.743 274.16 177.133 291.805 181.171C309.449 185.208 337.592 169.203 337.592 169.203C337.592 169.203 371.131 148.874 381.193 150.171C391.254 151.469 414.148 157.525 408.607 187.659C403.066 217.793 356.112 213.756 356.112 213.756C356.112 213.756 330.447 206.402 324.614 204.816C318.782 203.23 307.845 203.951 301.429 206.258C295.013 208.565 285.972 215.774 285.972 215.774C285.972 215.774 275.473 226.732 275.764 238.699C276.056 250.666 275.619 261.624 284.514 271.716C293.409 281.809 306.678 282.963 306.678 282.963C306.678 282.963 326.51 283.251 329.718 282.53C332.926 281.809 355.091 280.079 353.778 293.488C353.778 293.488 355.091 301.706 344.592 308.483C334.093 315.259 330.593 325.784 330.593 325.784C330.593 325.784 327.968 333.57 330.739 341.068C333.509 348.565 338.321 354.909 338.321 354.909L347.508 364.569M343.991 97.5556C343.991 97.5556 349.938 88.504 351.154 80.9644C351.42 79.3141 352.241 77.7647 352.772 76.7539L343.991 97.5556ZM353.223 75.8158C353.41 75.3676 353.718 74.4747 353.814 73.9433L353.223 75.8158Z" stroke="#FCFEF1" stroke-width="0.926809"/>
<path d="M297.054 101.582C297.054 101.582 260.891 120.182 274.306 142.097C287.722 164.013 309.303 157.092 309.303 157.092L349.258 136.763C349.258 136.763 376.818 120.903 398.691 130.274C420.564 139.646 420.273 161.129 420.273 161.129C420.273 161.129 421.293 183.045 413.127 192.993C404.962 202.942 399.712 208.421 385.567 210.728" stroke="#FCFEF1" stroke-width="0.926809"/>
<path d="M285.972 215.774C285.972 215.774 276.35 238.453 282.949 250.687C289.548 262.921 301.303 264.756 301.303 264.756L307.283 265.164C307.283 265.164 340.072 261.086 342.547 264.348C342.547 264.348 361.519 270.669 359.045 287.39C356.57 304.11 348.94 305.129 348.94 305.129" stroke="#FCFEF1" stroke-width="0.926809"/>
<path d="M263.049 139.865C263.049 139.865 265.936 130.078 271.401 130.588" stroke="#FCFEF1" stroke-width="0.926809"/>
<path d="M266.348 155.362C266.451 154.75 269.029 145.575 275.731 144.249" stroke="#FCFEF1" stroke-width="0.926809"/>
<path d="M284.908 153.527C284.908 153.527 273.463 161.173 279.649 176.16" stroke="#FCFEF1" stroke-width="0.926809"/>
<path d="M298.106 158.013C298.21 157.197 284.393 171.165 299.55 181.972" stroke="#FCFEF1" stroke-width="0.926809"/>
<path d="M309.303 157.092C309.303 157.092 302.952 173.51 314.295 179.015" stroke="#FCFEF1" stroke-width="0.926809"/>
<path d="M324.296 149.551C324.296 149.551 315.635 167.189 330.689 172.592" stroke="#FCFEF1" stroke-width="0.926809"/>
<path d="M338.422 142.21C338.422 142.21 332.648 157.401 346.465 164.13" stroke="#FCFEF1" stroke-width="0.926809"/>
<path d="M357.704 132.831C357.704 132.831 348.94 148.531 360.591 156.688" stroke="#FCFEF1" stroke-width="0.926809"/>
<path d="M377.398 127.529C377.398 127.529 366.366 140.885 375.13 150.978" stroke="#FCFEF1" stroke-width="0.926809"/>
<path d="M399.361 130.384C399.361 130.384 380.286 130.486 387.813 151.488" stroke="#FCFEF1" stroke-width="0.926809"/>
<path d="M411.219 139.152C411.219 139.152 397.402 137.419 399.258 156.79" stroke="#FCFEF1" stroke-width="0.926809"/>
<path d="M419.158 153.731C419.158 153.731 411.219 147.206 407.919 168.31" stroke="#FCFEF1" stroke-width="0.926809"/>
<path d="M409.569 176.874C409.569 176.874 417.096 162.091 420.396 168.922" stroke="#FCFEF1" stroke-width="0.926809"/>
<path d="M281.16 245.187C281.16 245.187 276.931 248.503 276.493 253.261" stroke="#FCFEF1" stroke-width="0.926809"/>
<path d="M286.264 255.568C286.264 255.568 280.285 260.254 282.618 269.41" stroke="#FCFEF1" stroke-width="0.926809"/>
<path d="M295.888 262.921C295.888 262.921 289.544 268.4 294.502 279.214" stroke="#FCFEF1" stroke-width="0.926809"/>
<path d="M307.283 265.164C305.568 269.327 303.716 278.31 309.449 283.179" stroke="#FCFEF1" stroke-width="0.926809"/>
<path d="M352.174 270.058C352.174 270.058 344.956 273.951 348.237 284.332" stroke="#FCFEF1" stroke-width="0.926809"/>
<path d="M337.374 263.138C337.228 263.498 328.916 269.554 339.415 282.314" stroke="#FCFEF1" stroke-width="0.926809"/>
<path d="M322.938 263.714C322.938 263.714 313.313 274.384 327.75 282.818" stroke="#FCFEF1" stroke-width="0.926809"/>
<path d="M343.991 97.5556C343.991 97.5556 335.948 113.256 324.812 117.538C313.676 121.82 295.941 125.49 295.941 125.49C295.941 125.49 278.681 130.563 288.961 147.793C299.242 165.022 332.78 142.602 332.78 142.602L353.271 131.811C353.271 131.811 385.235 116.926 407.095 128.039C428.954 139.152 432.872 158.625 432.872 158.625C432.872 158.625 439.23 187.659 429.605 206.114C419.981 224.569 406.128 231.346 406.128 231.346C406.128 231.346 394.171 238.122 373.319 241.727C352.466 245.331 322.427 233.509 322.427 233.509C322.427 233.509 307.991 227.885 298.367 242.015" stroke="#FCFEF1" stroke-width="0.926809"/>
<path d="M353.814 73.9444C355.199 72.2142 384.801 55.7775 387.499 38.4757C390.196 21.1739 378.822 14.9741 377.801 14.037C376.781 13.0998 372.26 9.20689 372.26 9.20689C372.26 9.20689 369.781 0.844349 363.219 1.20481C356.657 1.56525 358.306 5.35109 352.035 7.22545" stroke="#FCFEF1" stroke-width="0.926809"/>
<path d="M333.628 71.4438C332.242 69.7137 309.64 55.5839 306.942 38.2822C304.245 20.9804 315.619 14.7806 316.64 13.8435C317.66 12.9063 322.181 9.01339 322.181 9.01339C322.181 9.01339 324.66 0.650869 331.222 1.01133C337.784 1.37178 336.909 5.76931 343.179 7.64366C349.449 9.51802 355.453 5.61788 355.453 5.61788" stroke="#FCFEF1" stroke-width="0.926809"/>
<path d="M355.645 15.0258C356.594 13.2382 359.994 7.0748 363.791 5.89815C367.588 4.72151 367.078 9.48411 367.078 9.48411C367.078 9.48411 367.361 15.3673 361.808 16.9362C356.254 18.505 355.645 15.0258 355.645 15.0258V15.0258Z" stroke="#FCFEF1" stroke-width="0.926809"/>
<path d="M364.229 7.60898C364.229 7.60898 367.795 10.9766 361.545 16.2063C361.424 16.246 358.139 15.7705 358.419 12.3633C358.7 8.95603 364.229 7.60898 364.229 7.60898Z" stroke="#FCFEF1" stroke-width="0.926809"/>
<path d="M362.112 13.3892L361.545 15.6471C361.545 15.6471 360.863 16.307 360.583 14.9505C360.302 13.5941 359.621 10.9179 359.942 10.258C360.262 9.59814 361.985 8.71829 361.985 8.71829C361.985 8.71829 362.37 11.8599 362.21 11.8966C362.05 11.9332 360.423 9.37584 360.366 9.71201" stroke="#FCFEF1" stroke-width="0.926809"/>
<path d="M342.755 17.8128C342.755 17.8128 347.761 15.8368 350.852 17.7946" stroke="#FCFEF1" stroke-width="0.926809"/>
<path d="M338.289 14.8928C337.339 13.1051 333.939 6.94182 330.143 5.76519C326.346 4.58856 326.856 9.3511 326.856 9.3511C326.856 9.3511 326.573 15.2343 332.126 16.8031C337.679 18.3719 338.289 14.8928 338.289 14.8928V14.8928Z" stroke="#FCFEF1" stroke-width="0.926809"/>
<path d="M329.705 7.47595C329.705 7.47595 326.139 10.8436 332.39 16.0733C332.51 16.1129 335.796 15.6375 335.515 12.2302C335.235 8.823 329.705 7.47595 329.705 7.47595Z" stroke="#FCFEF1" stroke-width="0.926809"/>
<path d="M331.822 13.2561L332.389 15.514C332.389 15.514 333.071 16.1739 333.351 14.8174C333.632 13.461 334.313 10.7848 333.992 10.1249C333.672 9.46505 331.949 8.58521 331.949 8.58521C331.949 8.58521 331.564 11.7268 331.724 11.7635C331.885 11.8001 333.511 9.24274 333.568 9.57893" stroke="#FCFEF1" stroke-width="0.926809"/>
<path d="M359.128 30.9139C359.128 30.9139 372.544 27.814 375.46 19.0189" stroke="#FCFEF1" stroke-width="0.926809"/>
<path d="M357.816 36.0323C357.816 36.0323 379.835 31.9953 381.293 23.9211" stroke="#FCFEF1" stroke-width="0.926809"/>
<path d="M357.233 39.7811C357.233 39.7811 383.043 38.1951 384.647 29.4" stroke="#FCFEF1" stroke-width="0.926809"/>
<path d="M356.738 43.4065C356.738 43.4065 384.355 44.5391 386.105 37.6183" stroke="#FCFEF1" stroke-width="0.926809"/>
<path d="M356.358 47.9994C356.358 47.9994 381.89 50.2783 383.626 47.5668" stroke="#FCFEF1" stroke-width="0.926809"/>
<path d="M356.503 51.7481C356.503 51.7481 374.439 56.506 379.543 53.4783" stroke="#FCFEF1" stroke-width="0.926809"/>
<path d="M356.65 57.227C356.65 57.227 367.732 61.4083 373.127 59.6781" stroke="#FCFEF1" stroke-width="0.926809"/>
<path d="M356.212 61.985C356.212 61.985 361.753 66.8871 366.565 65.0128" stroke="#FCFEF1" stroke-width="0.926809"/>
<path d="M355.629 67.1754C355.629 67.1754 356.358 72.2219 361.461 68.6173" stroke="#FCFEF1" stroke-width="0.926809"/>
<path d="M334.445 30.891C334.445 30.891 321.013 29.0866 318.097 20.2916" stroke="#FCFEF1" stroke-width="0.926809"/>
<path d="M335.972 36.224C335.972 36.224 314.624 33.2064 313.166 25.1322" stroke="#FCFEF1" stroke-width="0.926809"/>
<path d="M337.388 42.1151C337.388 42.1151 311.578 40.529 309.974 31.7339" stroke="#FCFEF1" stroke-width="0.926809"/>
<path d="M338.02 46.5479C338.02 46.5479 328.915 46.313 321.216 44.6765C314.797 43.312 309.645 40.6436 308.856 39.4109" stroke="#FCFEF1" stroke-width="0.926809"/>
<path d="M337.511 50.0856C337.511 50.0856 329.673 50.5129 322.26 49.7247C316.986 49.1639 311.705 47.2674 309.583 46.0088" stroke="#FCFEF1" stroke-width="0.926809"/>
<path d="M337.474 54.848C337.474 54.848 316.184 57.0108 313.049 52.1807" stroke="#FCFEF1" stroke-width="0.926809"/>
<path d="M337.036 59.1014C337.036 59.1014 327.923 62.778 318.59 58.5967" stroke="#FCFEF1" stroke-width="0.926809"/>
<path d="M336.307 64.2919C336.307 64.2919 333.172 67.536 324.568 64.2198" stroke="#FCFEF1" stroke-width="0.926809"/>
<rect y="12.0615" width="250" height="294" rx="50" fill="#E1FF00" fill-opacity="0.9"/>
<rect y="12.0615" width="234" height="294" rx="50" fill="#FCFEF1"/>
<rect y="12.0615" width="108" height="294" fill="#FCFEF1"/>
</svg>
