<svg width="123" height="414" viewBox="0 0 123 414" fill="none" xmlns="http://www.w3.org/2000/svg">
<path d="M69.0841 23.9975C72.0916 29.2678 76.3291 40.1704 75.885 49.8348C74.8643 72.0514 71.6275 73.3634 71.6275 73.3634" stroke="#FCFEF1" stroke-width="0.926809"/>
<path d="M107.684 17.5649C108.745 16.7923 108.995 16.614 108.995 16.614L110.581 13.8243L110.26 9.42944M91.8137 75.931C92.8219 73.485 94.8505 64.8929 94.5503 51.0197C94.2449 36.9062 97.5609 28.4054 100.689 23.95L91.8137 75.931Z" stroke="#FCFEF1" stroke-width="0.926809"/>
<path d="M83.108 51.7866C82.4489 51.4802 81.1733 50.8874 80.4784 50.1311C78.4369 47.9094 78.2181 42.0591 77.2703 35.9865C76.3225 29.914 72.8228 23.1009 72.5311 23.175C72.5311 23.175 77.2703 20.8793 77.7078 20.509C78.1452 20.1387 80.2596 18.4355 80.9158 18.2874C81.572 18.1392 81.7178 19.5463 81.7178 19.5463C81.7178 19.5463 82.0824 21.2496 84.9259 21.1755" stroke="#FCFEF1" stroke-width="0.926809"/>
<path d="M86.4297 51.9282C87.0851 51.6215 88.6834 50.8821 89.3736 50.131C91.4151 47.9094 91.6338 42.059 92.5816 35.9865C93.5295 29.914 97.0291 23.1009 97.3208 23.175C97.3208 23.175 92.5816 20.8793 92.1442 20.509C91.7067 20.1387 89.5923 18.4355 88.9361 18.2874C88.2799 18.1392 88.1341 19.5463 88.1341 19.5463C88.1341 19.5463 87.7695 21.2495 84.926 21.1755" stroke="#FCFEF1" stroke-width="0.926809"/>
<path d="M77.9096 20.2604C77.8905 22.4765 77.3566 31.4266 80.2392 36.1265" stroke="#FCFEF1" stroke-width="0.926809"/>
<path d="M81.7179 19.5463C81.7179 19.5463 78.8474 24.711 80.2394 36.1265" stroke="#FCFEF1" stroke-width="0.926809"/>
<path d="M62.178 17.3987L59.8756 14.0935L60.1807 9.23163" stroke="#FCFEF1" stroke-width="0.926809"/>
<path d="M91.9422 20.2604C91.9613 22.4765 92.4951 31.4266 89.6125 36.1265" stroke="#FCFEF1" stroke-width="0.926809"/>
<path d="M88.134 19.5463C88.134 19.5463 91.0046 24.711 89.6126 36.1265" stroke="#FCFEF1" stroke-width="0.926809"/>
<path d="M62.1783 17.3987C62.1783 17.3987 42.7375 24.0901 47.5837 47.2353" stroke="#FCFEF1" stroke-width="0.926809"/>
<path d="M108.841 16.9543C108.841 16.9543 128.209 22.9052 123.362 46.0505" stroke="#FCFEF1" stroke-width="0.926809"/>
<path d="M62.178 17.3987C62.178 17.3987 63.9479 31.309 80.755 18.2702" stroke="#FCFEF1" stroke-width="0.926809"/>
<path d="M107.684 17.5649C107.684 17.5649 105.659 31.2902 88.8519 18.2513" stroke="#FCFEF1" stroke-width="0.926809"/>
<path d="M83.4024 54.3455C81.8355 54.075 79.1467 53.4836 77.9668 52.1995C76.8757 51.0122 76.3053 48.7883 75.866 46.048" stroke="#FCFEF1" stroke-width="0.926809"/>
<path d="M86.4185 54.3754C87.9151 54.1149 90.5317 53.5232 91.6166 52.3426C92.7076 51.1553 94.2988 47.3022 94.7382 44.562" stroke="#FCFEF1" stroke-width="0.926809"/>
<path d="M82.7647 48.7162C82.7647 48.7162 84.7332 62.7126 84.2958 64.4159C84.2958 64.4159 84.952 68.563 82.2543 73.4507C79.5566 78.3383 74.4529 80.4119 74.4529 80.4119C74.4529 80.4119 77.8068 80.9302 81.9627 76.635C86.1186 72.3398 84.952 71.1549 84.952 71.1549C84.952 71.1549 87.2122 79.0789 95.2324 80.0416" stroke="#FCFEF1" stroke-width="0.926809"/>
<path d="M86.9206 48.6422C86.9206 48.6422 84.6604 66.2673 87.0663 71.229C89.4724 76.1906 89.8369 78.1901 95.2323 80.0415" stroke="#FCFEF1" stroke-width="0.926809"/>
<path d="M82.7644 48.7162C82.7644 48.7162 84.733 31.7576 86.9203 48.6421" stroke="#FCFEF1" stroke-width="0.926809"/>
<path d="M36.3663 248.582C36.3663 248.582 26.5963 273.021 62.7598 266.8C98.9234 260.579 112.922 278.056 114.964 285.314C117.005 292.571 120.067 313.159 112.339 321.897C104.61 330.636 90.6116 337.745 90.7574 347.668C90.9032 357.592 98.3401 366.775 98.3401 366.775C98.3401 366.775 106.36 378.475 102.131 393.879C97.9026 409.282 87.6952 412.096 87.6952 412.096C87.6952 412.096 76.9045 414.762 72.2382 408.245C67.5719 401.729 74.8629 402.469 76.6128 403.95C78.3627 405.431 84.9246 406.172 87.5493 402.025C90.1741 397.878 94.9862 390.028 85.5079 374.476" stroke="#FCFEF1" stroke-width="0.926809"/>
<path d="M71.6276 73.3634C70.736 81.5106 65.6807 91.2207 64.9475 92.1781C63.9267 93.5111 49.6363 103.286 38.6997 104.027C27.7632 104.767 17.5557 111.432 13.9102 115.876C10.2647 120.319 -2.56755 132.02 1.9529 151.126C6.47335 170.232 12.1604 181.933 29.8047 186.08C47.449 190.227 75.5924 173.787 75.5924 173.787C75.5924 173.787 109.131 152.903 119.193 154.236C129.254 155.569 152.148 161.79 146.607 192.745C141.066 223.7 94.1116 219.553 94.1116 219.553C94.1116 219.553 68.4472 211.999 62.6144 210.37C56.7815 208.741 45.8449 209.481 39.4288 211.851C33.0127 214.221 23.9718 221.626 23.9718 221.626C23.9718 221.626 13.4727 232.883 13.7644 245.176C14.056 257.469 13.6186 268.726 22.5136 279.093C31.4087 289.461 44.6784 290.646 44.6784 290.646C44.6784 290.646 64.51 290.942 67.7181 290.201C70.9261 289.461 93.0909 287.684 91.7785 301.458C91.7785 301.458 93.0909 309.9 82.5918 316.861C72.0927 323.823 68.593 334.635 68.593 334.635C68.593 334.635 65.9682 342.633 68.7388 350.334C71.5094 358.036 76.3214 364.553 76.3214 364.553L85.5082 374.476M81.9906 100.187C81.9906 100.187 87.9382 90.8885 89.1537 83.1434C89.4197 81.4481 90.2406 79.8565 90.7716 78.8181L81.9906 100.187ZM91.2226 77.8545C91.41 77.3941 91.7179 76.4768 91.8136 75.9309L91.2226 77.8545Z" stroke="#FCFEF1" stroke-width="0.926809"/>
<path d="M35.054 104.323C35.054 104.323 -1.10953 123.429 12.306 145.942C25.7215 168.455 47.303 161.346 47.303 161.346L87.2579 140.462C87.2579 140.462 114.818 124.17 136.691 133.797C158.564 143.424 158.273 165.493 158.273 165.493C158.273 165.493 159.293 188.005 151.127 198.225C142.961 208.445 137.712 214.073 123.567 216.443" stroke="#FCFEF1" stroke-width="0.926809"/>
<path d="M23.9718 221.626C23.9718 221.626 14.3499 244.923 20.949 257.491C27.5481 270.058 39.3027 271.943 39.3027 271.943L45.2832 272.362C45.2832 272.362 78.0724 268.173 80.5471 271.524C80.5471 271.524 99.5195 278.018 97.0448 295.193C94.5701 312.369 86.9399 313.416 86.9399 313.416" stroke="#FCFEF1" stroke-width="0.926809"/>
<path d="M1.04883 143.649C1.04883 143.649 3.93594 133.596 9.40082 134.119" stroke="#FCFEF1" stroke-width="0.926809"/>
<path d="M4.3479 159.568C4.45112 158.94 7.02879 149.514 13.731 148.153" stroke="#FCFEF1" stroke-width="0.926809"/>
<path d="M22.908 157.683C22.908 157.683 11.4627 165.538 17.6494 180.933" stroke="#FCFEF1" stroke-width="0.926809"/>
<path d="M36.1065 162.291C36.2097 161.454 22.3927 175.802 37.55 186.903" stroke="#FCFEF1" stroke-width="0.926809"/>
<path d="M47.303 161.346C47.303 161.346 40.9524 178.21 52.2945 183.866" stroke="#FCFEF1" stroke-width="0.926809"/>
<path d="M62.2963 153.599C62.2963 153.599 53.635 171.717 68.6891 177.268" stroke="#FCFEF1" stroke-width="0.926809"/>
<path d="M76.4225 146.058C76.4225 146.058 70.6483 161.663 84.4651 168.575" stroke="#FCFEF1" stroke-width="0.926809"/>
<path d="M95.7043 136.423C95.7043 136.423 86.9398 152.552 98.5914 160.93" stroke="#FCFEF1" stroke-width="0.926809"/>
<path d="M115.398 130.977C115.398 130.977 104.366 144.697 113.13 155.065" stroke="#FCFEF1" stroke-width="0.926809"/>
<path d="M19.1598 251.841C19.1598 251.841 14.931 255.248 14.4935 260.135" stroke="#FCFEF1" stroke-width="0.926809"/>
<path d="M24.2636 262.505C24.2636 262.505 18.2849 267.319 20.618 276.724" stroke="#FCFEF1" stroke-width="0.926809"/>
<path d="M33.8876 270.059C33.8876 270.059 27.5445 275.687 32.5024 286.795" stroke="#FCFEF1" stroke-width="0.926809"/>
<path d="M45.2832 272.362C43.568 276.638 41.716 285.866 47.449 290.868" stroke="#FCFEF1" stroke-width="0.926809"/>
<path d="M90.1741 277.39C90.1741 277.39 82.956 281.389 86.237 292.053" stroke="#FCFEF1" stroke-width="0.926809"/>
<path d="M75.374 270.281C75.2282 270.651 66.9164 276.872 77.4155 289.979" stroke="#FCFEF1" stroke-width="0.926809"/>
<path d="M60.9375 270.873C60.9375 270.873 51.3133 281.833 65.7496 290.498" stroke="#FCFEF1" stroke-width="0.926809"/>
<path d="M81.9907 100.187C81.9907 100.187 73.9481 116.315 62.8121 120.714C51.6761 125.112 33.9411 128.883 33.9411 128.883C33.9411 128.883 16.6809 134.093 26.9612 151.793C37.2416 169.492 70.7804 146.461 70.7804 146.461L91.2707 135.376C91.2707 135.376 123.235 120.085 145.095 131.501C166.954 142.916 170.872 162.92 170.872 162.92C170.872 162.92 177.23 192.745 167.605 211.703C157.981 230.661 144.128 237.622 144.128 237.622C144.128 237.622 132.171 244.584 111.319 248.286C90.4662 251.989 60.4271 239.844 60.4271 239.844C60.4271 239.844 45.9908 234.068 36.3667 248.583" stroke="#FCFEF1" stroke-width="0.926809"/>
<path d="M91.8139 75.9311C93.1992 74.1538 122.801 57.2692 125.499 39.496C128.196 21.7227 116.822 15.354 115.801 14.3913C114.781 13.4285 110.26 9.42957 110.26 9.42957C110.26 9.42957 107.781 0.839169 101.219 1.20945C94.6574 1.57972 96.3057 5.46871 90.0354 7.39414" stroke="#FCFEF1" stroke-width="0.926809"/>
<path d="M71.6277 73.3634C70.2423 71.5861 47.6401 57.0713 44.9424 39.2981C42.2447 21.5249 53.6188 15.1562 54.6395 14.1934C55.6603 13.2307 60.1807 9.23175 60.1807 9.23175C60.1807 9.23175 62.6597 0.641355 69.2216 1.01164C75.7835 1.38191 74.9086 5.89927 81.1789 7.8247C87.4492 9.75013 93.4529 5.74372 93.4529 5.74372" stroke="#FCFEF1" stroke-width="0.926809"/>
<path d="M93.6447 15.408C94.5946 13.5716 97.9946 7.24034 101.791 6.03163C105.588 4.82293 105.078 9.7153 105.078 9.7153C105.078 9.7153 105.361 15.7588 99.808 17.3704C94.2546 18.982 93.6447 15.408 93.6447 15.408V15.408Z" stroke="#FCFEF1" stroke-width="0.926809"/>
<path d="M102.229 7.78906C102.229 7.78906 105.795 11.2485 99.5445 16.6207C99.4242 16.6614 96.1386 16.173 96.4191 12.6729C96.6996 9.17282 102.229 7.78906 102.229 7.78906Z" stroke="#FCFEF1" stroke-width="0.926809"/>
<path d="M100.113 13.7268L99.5447 16.0462C99.5447 16.0462 98.8636 16.7241 98.5831 15.3307C98.3026 13.9373 97.6214 11.1882 97.942 10.5103C98.2625 9.83247 99.9855 8.92865 99.9855 8.92865C99.9855 8.92865 100.37 12.1559 100.21 12.1935C100.05 12.2312 98.4228 9.60411 98.3662 9.94945" stroke="#FCFEF1" stroke-width="0.926809"/>
<path d="M80.7549 18.271C80.7549 18.271 85.7611 16.2411 88.8516 18.2522" stroke="#FCFEF1" stroke-width="0.926809"/>
<path d="M76.2892 15.2713C75.3393 13.435 71.9393 7.10373 68.1426 5.89504C64.3459 4.68635 64.8559 9.57866 64.8559 9.57866C64.8559 9.57866 64.5725 15.6221 70.1259 17.2337C75.6793 18.8453 76.2892 15.2713 76.2892 15.2713V15.2713Z" stroke="#FCFEF1" stroke-width="0.926809"/>
<path d="M67.705 7.6524C67.705 7.6524 64.1388 11.1118 70.3897 16.484C70.51 16.5247 73.7956 16.0364 73.5151 12.5363C73.2347 9.03617 67.705 7.6524 67.705 7.6524Z" stroke="#FCFEF1" stroke-width="0.926809"/>
<path d="M69.8217 13.5901L70.3895 15.9095C70.3895 15.9095 71.0707 16.5873 71.3512 15.194C71.6317 13.8006 72.3128 11.0515 71.9923 10.3736C71.6717 9.69575 69.9488 8.79193 69.9488 8.79193C69.9488 8.79193 69.5642 12.0192 69.7245 12.0568C69.8847 12.0944 71.5114 9.46738 71.5681 9.81273" stroke="#FCFEF1" stroke-width="0.926809"/>
<path d="M97.1282 31.7291C97.1282 31.7291 110.544 28.5447 113.46 19.5099" stroke="#FCFEF1" stroke-width="0.926809"/>
<path d="M95.8157 36.9869C95.8157 36.9869 117.835 32.8399 119.293 24.5457" stroke="#FCFEF1" stroke-width="0.926809"/>
<path d="M95.2327 40.8378C95.2327 40.8378 121.043 39.2086 122.647 30.1739" stroke="#FCFEF1" stroke-width="0.926809"/>
<path d="M94.738 44.562C94.738 44.562 122.355 45.7255 124.105 38.6161" stroke="#FCFEF1" stroke-width="0.926809"/>
<path d="M94.3575 49.2801C94.3575 49.2801 119.89 51.6211 121.626 48.8357" stroke="#FCFEF1" stroke-width="0.926809"/>
<path d="M94.5034 53.131C94.5034 53.131 112.439 58.0185 117.543 54.9083" stroke="#FCFEF1" stroke-width="0.926809"/>
<path d="M94.6497 58.7592C94.6497 58.7592 105.732 63.0544 111.127 61.277" stroke="#FCFEF1" stroke-width="0.926809"/>
<path d="M94.2117 63.6467C94.2117 63.6467 99.7528 68.6825 104.565 66.7571" stroke="#FCFEF1" stroke-width="0.926809"/>
<path d="M93.6287 68.9787C93.6287 68.9787 94.3578 74.1626 99.4615 70.4598" stroke="#FCFEF1" stroke-width="0.926809"/>
<path d="M72.4448 31.7055C72.4448 31.7055 59.0131 29.852 56.0967 20.8173" stroke="#FCFEF1" stroke-width="0.926809"/>
<path d="M73.9723 37.1838C73.9723 37.1838 52.6236 34.084 51.1654 25.7898" stroke="#FCFEF1" stroke-width="0.926809"/>
<path d="M75.3881 43.2354C75.3881 43.2354 49.5778 41.6062 47.9738 32.5714" stroke="#FCFEF1" stroke-width="0.926809"/>
<path d="M76.0199 47.789C76.0199 47.789 66.9149 47.5478 59.2159 45.8666C52.7973 44.465 47.6451 41.7238 46.8557 40.4575" stroke="#FCFEF1" stroke-width="0.926809"/>
<path d="M75.5106 51.4231C75.5106 51.4231 67.6727 51.8621 60.2595 51.0524C54.9858 50.4764 49.7049 48.5282 47.5834 47.2353" stroke="#FCFEF1" stroke-width="0.926809"/>
<path d="M75.4737 56.3153C75.4737 56.3153 54.1838 58.537 51.0487 53.5753" stroke="#FCFEF1" stroke-width="0.926809"/>
<path d="M75.0364 60.6846C75.0364 60.6846 65.9226 64.4615 56.5901 60.1662" stroke="#FCFEF1" stroke-width="0.926809"/>
<path d="M74.3071 66.0165C74.3071 66.0165 71.1719 69.3491 62.5685 65.9424" stroke="#FCFEF1" stroke-width="0.926809"/>
</svg>
