<?xml version="1.0" encoding="UTF-8"?>
<svg width="20px" height="20px" viewBox="0 0 20 20" version="1.1" xmlns="http://www.w3.org/2000/svg" xmlns:xlink="http://www.w3.org/1999/xlink">
    <!-- Generator: Sketch 63.1 (92452) - https://sketch.com -->
    <title>Instagram</title>
    <desc>Created with Sketch.</desc>
    <g id="Page-1" stroke="none" stroke-width="1" fill="none" fill-rule="evenodd">
        <g id="Footer-Desktop" transform="translate(-1145.000000, -338.000000)" fill="#CCCCCC">
            <g id="Group" transform="translate(1047.000000, 338.000000)">
                <g id="Instagram" transform="translate(98.000000, 0.000000)">
                    <path d="M10,1.8 C12.67,1.8 12.985,1.81 14.04,1.86 C15.015,1.905 15.545,2.065 15.895,2.205 C16.36,2.385 16.695,2.605 17.045,2.955 C17.395,3.305 17.61,3.64 17.795,4.105 C17.93,4.455 18.095,4.985 18.14,5.96 C18.19,7.015 18.2,7.33 18.2,10 C18.2,12.67 18.19,12.985 18.14,14.04 C18.095,15.015 17.935,15.545 17.795,15.895 C17.615,16.36 17.395,16.695 17.045,17.045 C16.695,17.395 16.36,17.61 15.895,17.795 C15.545,17.93 15.015,18.095 14.04,18.14 C12.985,18.19 12.67,18.2 10,18.2 C7.33,18.2 7.015,18.19 5.96,18.14 C4.985,18.095 4.455,17.935 4.105,17.795 C3.64,17.615 3.305,17.395 2.955,17.045 C2.605,16.695 2.39,16.36 2.205,15.895 C2.07,15.545 1.905,15.015 1.86,14.04 C1.81,12.985 1.8,12.67 1.8,10 C1.8,7.33 1.81,7.015 1.86,5.96 C1.905,4.985 2.065,4.455 2.205,4.105 C2.385,3.64 2.605,3.305 2.955,2.955 C3.305,2.605 3.64,2.39 4.105,2.205 C4.455,2.07 4.985,1.905 5.96,1.86 C7.015,1.81 7.33,1.8 10,1.8 L10,1.8 Z M10,0 C7.285,0 6.945,0.01 5.875,0.06 C4.81,0.11 4.085,0.28 3.45,0.525 C2.79,0.78 2.235,1.12 1.68,1.68 C1.12,2.235 0.78,2.79 0.525,3.45 C0.28,4.085 0.11,4.815 0.06,5.875 C0.01,6.945 0,7.285 0,10 C0,12.715 0.01,13.055 0.06,14.125 C0.11,15.19 0.28,15.915 0.525,16.55 C0.78,17.21 1.12,17.765 1.68,18.32 C2.235,18.875 2.795,19.22 3.45,19.475 C4.085,19.72 4.815,19.89 5.875,19.94 C6.94,19.99 7.28,20 10,20 C12.72,20 13.055,19.99 14.125,19.94 C15.19,19.89 15.915,19.72 16.55,19.475 C17.21,19.22 17.765,18.88 18.32,18.32 C18.875,17.765 19.22,17.205 19.475,16.55 C19.72,15.915 19.89,15.185 19.94,14.125 C19.99,13.06 20,12.72 20,10 C20,7.28 19.99,6.945 19.94,5.875 C19.89,4.81 19.72,4.085 19.475,3.45 C19.22,2.79 18.88,2.235 18.32,1.68 C17.765,1.125 17.205,0.78 16.55,0.525 C15.915,0.28 15.185,0.11 14.125,0.06 C13.055,0.01 12.715,0 10,0 L10,0 L10,0 Z" id="Shape" fill-rule="nonzero"></path>
                    <path d="M10,4.865 C7.165,4.865 4.865,7.165 4.865,10 C4.865,12.835 7.165,15.135 10,15.135 C12.835,15.135 15.135,12.835 15.135,10 C15.135,7.165 12.835,4.865 10,4.865 L10,4.865 Z M10,13.335 C8.16,13.335 6.665,11.845 6.665,10 C6.665,8.16 8.155,6.665 10,6.665 C11.84,6.665 13.335,8.155 13.335,10 C13.335,11.84 11.84,13.335 10,13.335 L10,13.335 Z" id="Shape" fill-rule="nonzero"></path>
                    <path d="M16.54,4.66 C16.54,5.325 16.005,5.86 15.34,5.86 C14.675,5.86 14.14,5.325 14.14,4.66 C14.14,3.995 14.675,3.46 15.34,3.46 C16,3.46 16.54,4 16.54,4.66 L16.54,4.66 Z" id="Path"></path>
                </g>
            </g>
        </g>
    </g>
</svg>