<?xml version="1.0" encoding="UTF-8"?>
<svg width="20px" height="20px" viewBox="0 0 20 20" version="1.1" xmlns="http://www.w3.org/2000/svg" xmlns:xlink="http://www.w3.org/1999/xlink">
    <!-- Generator: Sketch 63.1 (92452) - https://sketch.com -->
    <title>Pinterest</title>
    <desc>Created with Sketch.</desc>
    <g id="Page-1" stroke="none" stroke-width="1" fill="none" fill-rule="evenodd">
        <g id="Footer-Desktop" transform="translate(-1200.000000, -338.000000)" fill="#CCCCCC">
            <g id="Group" transform="translate(1047.000000, 338.000000)">
                <g id="Pinterest" transform="translate(153.000000, 0.000000)">
                    <path d="M20,9.975 C20,4.45 15.5388471,0 10,0 C4.46115288,0 0,4.45 0,9.975 C0,14.065 2.45112782,17.57 5.99498747,19.12 C5.94486216,18.425 5.97493734,17.57 6.160401,16.83 C6.3358396,16 7.44862155,11.385 7.44862155,11.385 C7.44862155,11.385 7.12781955,10.76 7.12781955,9.805 C7.12781955,8.335 7.98496241,7.225 9.05263158,7.225 C9.94987469,7.225 10.3909774,7.895 10.3909774,8.725 C10.3909774,9.62 9.81453634,10.985 9.51378446,12.26 C9.25814536,13.32 10.0501253,14.17 11.0877193,14.17 C12.9924812,14.17 14.2606516,11.755 14.2606516,8.89 C14.2606516,6.69 12.8070175,5.05 10.1203008,5.05 C7.08270677,5.05 5.18796992,7.31 5.18796992,9.83 C5.18796992,10.71 5.44360902,11.3 5.83458647,11.79 C6.02005013,12.005 6.07017544,12.09 6,12.345 C5.94987469,12.53 5.83458647,12.97 5.79448622,13.135 C5.71428571,13.39 5.51378446,13.475 5.27819549,13.39 C3.88972431,12.835 3.2481203,11.305 3.2481203,9.58 C3.24310777,6.74 5.62406015,3.35 10.3909774,3.35 C14.1904762,3.35 16.7117794,6.12 16.7117794,9.08 C16.7117794,12.975 14.5413534,15.91 11.3233083,15.91 C10.2406015,15.91 9.21303258,15.335 8.87218045,14.665 C8.87218045,14.665 8.29573935,16.975 8.18045113,17.41 C7.96491228,18.17 7.55388471,18.94 7.15288221,19.535 C8.06015038,19.82 9.0075188,19.955 10.0050125,19.955 C15.5388471,19.95 20,15.5 20,9.975 Z" id="Path"></path>
                </g>
            </g>
        </g>
    </g>
</svg>