<?xml version="1.0" encoding="UTF-8"?>
<svg width="20px" height="16px" viewBox="0 0 20 16" version="1.1" xmlns="http://www.w3.org/2000/svg" xmlns:xlink="http://www.w3.org/1999/xlink">
    <!-- Generator: Sketch 63.1 (92452) - https://sketch.com -->
    <title>Twitter</title>
    <desc>Created with Sketch.</desc>
    <g id="Page-1" stroke="none" stroke-width="1" fill="none" fill-rule="evenodd">
        <g id="Footer-Desktop" transform="translate(-1047.000000, -340.000000)" fill="#CCCCCC">
            <g id="Group" transform="translate(1047.000000, 338.000000)">
                <g id="Twitter" transform="translate(0.000000, 2.000000)">
                    <path d="M20,1.90429448 C19.26,2.22822086 18.475,2.44907975 17.635,2.54723926 C18.495,2.04662577 19.14,1.25153374 19.44,0.314110429 C18.66,0.775460123 17.77,1.10920245 16.85,1.29079755 C16.08,0.525153374 15.015,0.0245398773 13.83,0.0245398773 C11.565,0.0245398773 9.74,1.81595092 9.74,4.0392638 C9.74,4.35828221 9.76,4.68220859 9.83,4.97177914 C6.43,4.79018405 3.425,3.27361963 1.385,0.839263804 C1.045,1.43312883 0.83,2.04662577 0.83,2.79263804 C0.83,4.17177914 1.55,5.39877301 2.665,6.13006135 C1.99,6.11042945 1.365,5.92883436 0.81,5.62944785 C0.81,5.65889571 0.81,5.65889571 0.81,5.67852761 C0.81,7.63190184 2.225,9.26625767 4.1,9.62944785 C3.75,9.72760736 3.375,9.77177914 3.005,9.77177914 C2.75,9.77177914 2.495,9.74233129 2.245,9.69815951 C2.755,11.2883436 4.285,12.4760736 6.065,12.4957055 C4.68,13.5852761 2.89,14.4 0.975,14.4 C0.645,14.4 0.32,14.3803681 2.84217094e-14,14.3312883 C1.805,15.4699387 3.985,15.9705521 6.3,15.9705521 C13.84,15.9705521 17.96,9.83558282 17.96,4.51533742 C17.96,4.33374233 17.96,4.16687117 17.96,3.98527607 C18.75,3.42576687 19.445,2.72883436 20,1.90429448 Z" id="Path"></path>
                </g>
            </g>
        </g>
    </g>
</svg>