<svg width="49" height="45" viewBox="0 0 49 45" fill="none" xmlns="http://www.w3.org/2000/svg">
<path fill-rule="evenodd" clip-rule="evenodd" d="M24.5 0C24.9998 0 25.4792 0.197544 25.8326 0.549175C26.1861 0.900806 26.3846 1.37772 26.3846 1.875V43.125C26.3846 43.6223 26.1861 44.0992 25.8326 44.4508C25.4792 44.8025 24.9998 45 24.5 45C24.0002 45 23.5208 44.8025 23.1674 44.4508C22.8139 44.0992 22.6154 43.6223 22.6154 43.125V1.875C22.6154 1.37772 22.8139 0.900806 23.1674 0.549175C23.5208 0.197544 24.0002 0 24.5 0V0ZM16.9615 7.5C17.4614 7.5 17.9407 7.69754 18.2942 8.04918C18.6476 8.40081 18.8462 8.87772 18.8462 9.375V35.625C18.8462 36.1223 18.6476 36.5992 18.2942 36.9508C17.9407 37.3025 17.4614 37.5 16.9615 37.5C16.4617 37.5 15.9823 37.3025 15.6289 36.9508C15.2755 36.5992 15.0769 36.1223 15.0769 35.625V9.375C15.0769 8.87772 15.2755 8.40081 15.6289 8.04918C15.9823 7.69754 16.4617 7.5 16.9615 7.5V7.5ZM32.0385 7.5C32.5383 7.5 33.0177 7.69754 33.3711 8.04918C33.7245 8.40081 33.9231 8.87772 33.9231 9.375V35.625C33.9231 36.1223 33.7245 36.5992 33.3711 36.9508C33.0177 37.3025 32.5383 37.5 32.0385 37.5C31.5386 37.5 31.0593 37.3025 30.7058 36.9508C30.3524 36.5992 30.1538 36.1223 30.1538 35.625V9.375C30.1538 8.87772 30.3524 8.40081 30.7058 8.04918C31.0593 7.69754 31.5386 7.5 32.0385 7.5ZM9.42308 13.125C9.92291 13.125 10.4023 13.3225 10.7557 13.6742C11.1091 14.0258 11.3077 14.5027 11.3077 15V30C11.3077 30.4973 11.1091 30.9742 10.7557 31.3258C10.4023 31.6775 9.92291 31.875 9.42308 31.875C8.92325 31.875 8.44389 31.6775 8.09045 31.3258C7.73702 30.9742 7.53846 30.4973 7.53846 30V15C7.53846 14.5027 7.73702 14.0258 8.09045 13.6742C8.44389 13.3225 8.92325 13.125 9.42308 13.125V13.125ZM39.5769 13.125C40.0768 13.125 40.5561 13.3225 40.9095 13.6742C41.263 14.0258 41.4615 14.5027 41.4615 15V30C41.4615 30.4973 41.263 30.9742 40.9095 31.3258C40.5561 31.6775 40.0768 31.875 39.5769 31.875C39.0771 31.875 38.5977 31.6775 38.2443 31.3258C37.8909 30.9742 37.6923 30.4973 37.6923 30V15C37.6923 14.5027 37.8909 14.0258 38.2443 13.6742C38.5977 13.3225 39.0771 13.125 39.5769 13.125ZM1.88462 16.875C2.38445 16.875 2.86381 17.0725 3.21724 17.4242C3.57067 17.7758 3.76923 18.2527 3.76923 18.75V26.25C3.76923 26.7473 3.57067 27.2242 3.21724 27.5758C2.86381 27.9275 2.38445 28.125 1.88462 28.125C1.38478 28.125 0.905425 27.9275 0.551991 27.5758C0.198557 27.2242 0 26.7473 0 26.25V18.75C0 18.2527 0.198557 17.7758 0.551991 17.4242C0.905425 17.0725 1.38478 16.875 1.88462 16.875ZM47.1154 16.875C47.6152 16.875 48.0946 17.0725 48.448 17.4242C48.8014 17.7758 49 18.2527 49 18.75V26.25C49 26.7473 48.8014 27.2242 48.448 27.5758C48.0946 27.9275 47.6152 28.125 47.1154 28.125C46.6156 28.125 46.1362 27.9275 45.7828 27.5758C45.4293 27.2242 45.2308 26.7473 45.2308 26.25V18.75C45.2308 18.2527 45.4293 17.7758 45.7828 17.4242C46.1362 17.0725 46.6156 16.875 47.1154 16.875Z" fill="white"/>
</svg>
